<svg id="Buttons" xmlns="http://www.w3.org/2000/svg" viewBox="0 0 1000 1420.58"><defs><style>.cls-1,.cls-2,.cls-23,.cls-24,.cls-26,.cls-4{fill:#fff;}.cls-13,.cls-14,.cls-2,.cls-25,.cls-27,.cls-28,.cls-3,.cls-4{stroke:#231f20;stroke-miterlimit:10;}.cls-14,.cls-2,.cls-25,.cls-27,.cls-28{stroke-width:5px;}.cls-14,.cls-3{fill:#6c7a89;}.cls-13,.cls-3,.cls-4{stroke-width:3px;}.cls-10,.cls-5{font-size:28.35px;}.cls-15,.cls-5{fill:#4baf7c;}.cls-10,.cls-11,.cls-12,.cls-15,.cls-19,.cls-23,.cls-24,.cls-26,.cls-29,.cls-5{font-family:Gotham;}.cls-10,.cls-11,.cls-12,.cls-15,.cls-20,.cls-22,.cls-23,.cls-26,.cls-29,.cls-5{font-weight:700;}.cls-6{fill:#e57e25;}.cls-7{fill:#5c97bf;}.cls-8{fill:#e08183;}.cls-9{fill:#c03a2b;}.cls-10,.cls-11,.cls-12,.cls-16,.cls-17,.cls-18,.cls-19,.cls-29{fill:#231f20;}.cls-11{font-size:33.8px;}.cls-12{font-size:22px;}.cls-13{fill:none;}.cls-15{font-size:87.89px;}.cls-16,.cls-22{white-space:pre;}.cls-17{letter-spacing:7px;}.cls-19,.cls-26,.cls-29{font-size:30px;}.cls-21{font-style:italic;}.cls-23{font-size:25px;}.cls-24{font-size:21px;}.cls-25{fill:#e06263;}.cls-27{fill:#f3b350;}.cls-28{fill:#90c695;}</style></defs><title>01-Home Buttons</title><rect class="cls-1" x="326.85" width="346.31" height="96.27"/><rect class="cls-1" x="81.55" y="784.72" width="854.72" height="461.2"/><rect class="cls-2" x="556.84" y="928.05" width="372.38" height="300.24"/><rect class="cls-2" x="734.77" y="811.53" width="192.45" height="76.84"/><rect class="cls-1" x="172.77" y="272.94" width="672.27" height="260.22"/><rect class="cls-2" x="557.48" y="813.08" width="140.89" height="76.84"/><rect class="cls-3" x="553.36" y="35.28" width="69.24" height="54.32"/><rect class="cls-3" x="384.96" y="34.95" width="111.4" height="54.32"/><rect class="cls-4" x="377.4" y="28.07" width="112.25" height="54.32"/><text class="cls-5" transform="translate(393.3 64.22)">d<tspan class="cls-6" x="19.14" y="0">r</tspan><tspan class="cls-7" x="30.99" y="0">u</tspan><tspan class="cls-8" x="48.65" y="0">g</tspan><tspan class="cls-9" x="67.79" y="0">s</tspan></text><rect class="cls-4" x="547.07" y="28.86" width="69.24" height="54.32"/><text class="cls-10" transform="translate(559.53 65.01)">me</text><text class="cls-11" transform="translate(512.71 69.41)">+</text><rect class="cls-3" x="57.07" y="37.73" width="103.36" height="42.15"/><rect class="cls-4" x="50.82" y="32.25" width="103.36" height="42.15"/><text class="cls-12" transform="translate(68.54 61.36)">about</text><rect class="cls-3" x="819.39" y="37.73" width="137.62" height="42.15"/><rect class="cls-4" x="813.14" y="32.25" width="137.62" height="42.15"/><circle class="cls-13" cx="929.49" cy="51.28" r="5.86" transform="translate(235.97 672.26) rotate(-45)"/><line class="cls-13" x1="919.55" y1="61.22" x2="925.34" y2="55.43"/><text class="cls-12" transform="translate(833.3 61.36)">search</text><rect class="cls-14" x="615.95" y="316.61" width="181.98" height="117.62"/><rect class="cls-14" x="191.78" y="316.61" width="303.07" height="117.62"/><rect class="cls-2" x="605.95" y="307.41" width="181.98" height="117.62"/><rect class="cls-2" x="181.78" y="307.41" width="303.07" height="117.62"/><text class="cls-15" transform="translate(206.72 392.97)">d<tspan class="cls-6" x="59.32" y="0">r</tspan><tspan class="cls-7" x="96.06" y="0">u</tspan><tspan class="cls-8" x="150.82" y="0">g</tspan><tspan class="cls-9" x="210.14" y="0">s</tspan><tspan class="cls-16" x="254.26" y="0">  + </tspan><tspan class="cls-17" x="389.61" y="0"> </tspan><tspan class="cls-18" x="423" y="0">me</tspan></text><text class="cls-19" transform="translate(181.89 497.03)"><tspan class="cls-20">A </tspan><tspan class="cls-21" x="32.7" y="0">harm reduction</tspan><tspan class="cls-22" x="266.91" y="0"> guide </tspan><tspan class="cls-20" x="371.54" y="0">t</tspan><tspan class="cls-20" x="383.54" y="0">o sa</tspan><tspan class="cls-20" x="445.28" y="0">f</tspan><tspan class="cls-20" x="456.44" y="0">e drug use</tspan></text><rect class="cls-2" x="85.75" y="819.85" width="421.51" height="408.45"/><rect class="cls-14" x="96.59" y="807.99" width="422.44" height="408.45"/><text class="cls-23" transform="translate(127.85 849.17)">What is harm reduction?</text><text class="cls-24" transform="translate(127.85 885.4)">Each year, thousands of <tspan x="0" y="25.2">drug-related deaths occur in the </tspan><tspan x="0" y="50.4">UK. It’s not easy to find safe and </tspan><tspan x="0" y="75.6">reliable drug info, leaving us </tspan><tspan x="0" y="100.8">vulnerable to overdosing, </tspan><tspan x="0" y="126">dangerous drug combinations, or </tspan><tspan x="0" y="151.2">uncomfortable experiences. Harm </tspan><tspan x="0" y="176.4">reduction is an approach that </tspan><tspan x="0" y="201.6">neither encourages, nor </tspan><tspan x="0" y="226.8">discourages drug use. Instead, it </tspan><tspan x="0" y="252">aims to lower the possible risks &amp; </tspan><tspan x="0" y="277.2">harms of using drugs.</tspan></text><rect class="cls-25" x="549.45" y="916.19" width="368.76" height="300.24"/><text class="cls-26" transform="translate(572.98 955.62)">Our partners</text><rect class="cls-27" x="725.76" y="803.2" width="192.45" height="76.84"/><rect class="cls-28" x="549.2" y="805.14" width="140.89" height="76.84"/><text class="cls-29" transform="translate(578.16 852.14)">News</text><text class="cls-29" transform="translate(752.33 851.78)">About Us</text></svg>