<?xml version="1.0" standalone="no"?>
<!DOCTYPE svg PUBLIC "-//W3C//DTD SVG 20010904//EN"
 "http://www.w3.org/TR/2001/REC-SVG-20010904/DTD/svg10.dtd">
<svg version="1.0" xmlns="http://www.w3.org/2000/svg"
 width="3125.000000pt" height="3125.000000pt" viewBox="0 0 3125.000000 3125.000000"
 preserveAspectRatio="xMidYMid meet">
<metadata>
Created by potrace 1.11, written by Peter Selinger 2001-2013
</metadata>
<g transform="translate(0.000000,3125.000000) scale(0.100000,-0.100000)"
fill="#000000" stroke="none">
<path d="M15529 29496 c-2 -2 -42 -7 -89 -10 -116 -7 -406 -42 -495 -60 -11
-2 -56 -9 -100 -16 -44 -6 -109 -18 -145 -25 -36 -7 -85 -16 -110 -20 -24 -4
-47 -8 -50 -10 -3 -2 -21 -6 -40 -9 -19 -3 -46 -8 -60 -11 -14 -3 -38 -8 -55
-10 -16 -3 -37 -8 -45 -10 -8 -2 -31 -7 -50 -11 -19 -3 -44 -8 -55 -10 -11 -2
-76 -15 -145 -29 -69 -14 -136 -28 -150 -30 -14 -2 -50 -9 -80 -15 -30 -6 -71
-13 -90 -16 -19 -2 -57 -8 -85 -14 -27 -5 -67 -12 -87 -15 -21 -3 -55 -7 -75
-10 -21 -3 -49 -8 -63 -11 -55 -10 -67 -12 -114 -18 -27 -4 -52 -9 -55 -10 -3
-2 -26 -7 -51 -10 -43 -6 -67 -10 -127 -21 -16 -3 -44 -8 -63 -11 -19 -3 -98
-19 -175 -34 -77 -16 -151 -31 -165 -34 -53 -11 -78 -16 -165 -36 -49 -12
-106 -25 -125 -30 -550 -145 -845 -251 -1200 -432 -169 -86 -163 -82 -265
-150 -150 -98 -324 -254 -445 -398 -30 -36 -57 -67 -60 -70 -3 -3 -38 -48 -76
-100 -93 -125 -183 -260 -339 -510 -235 -376 -315 -494 -452 -668 -175 -221
-319 -353 -642 -591 -237 -174 -335 -296 -447 -558 -77 -182 -130 -403 -149
-623 -4 -41 -9 -86 -12 -100 -2 -14 -6 -239 -8 -500 -3 -421 -10 -717 -19
-768 -2 -9 -7 -48 -12 -87 -4 -38 -8 -72 -9 -75 0 -3 -4 -27 -9 -55 -12 -80
-64 -269 -97 -353 -31 -79 -58 -135 -112 -232 -155 -279 -158 -389 -18 -747
115 -294 180 -567 199 -833 12 -169 5 -497 -12 -610 -5 -32 -17 -117 -22 -155
-2 -16 -6 -48 -10 -70 -4 -22 -8 -49 -9 -60 -3 -17 -38 -202 -50 -256 -2 -9
-24 -104 -49 -211 -26 -107 -48 -204 -51 -214 -2 -10 -19 -80 -39 -154 -19
-74 -37 -146 -40 -160 -8 -40 -13 -60 -35 -145 -11 -44 -22 -91 -25 -105 -3
-14 -16 -77 -30 -140 -22 -102 -52 -263 -71 -385 -8 -46 -10 -64 -20 -160 -4
-38 -9 -78 -11 -88 -5 -29 -17 -255 -17 -332 0 -82 11 -291 17 -321 2 -12 7
-45 11 -75 11 -88 45 -257 71 -354 14 -49 27 -97 28 -105 6 -25 45 -143 55
-165 5 -11 26 -63 47 -115 54 -136 200 -408 253 -472 6 -7 36 -46 67 -86 107
-142 185 -219 306 -303 208 -143 580 -287 838 -324 24 -4 47 -8 50 -10 24 -15
359 -23 433 -11 20 3 53 9 73 12 45 7 133 35 196 63 76 32 335 118 428 140 91
23 106 26 190 41 52 9 78 12 180 25 62 8 267 8 343 0 68 -7 155 -29 202 -50
17 -7 57 -24 90 -38 33 -14 96 -41 141 -60 164 -71 293 -91 391 -62 24 7 43
11 43 9 0 -8 153 77 192 107 130 102 271 292 358 484 17 39 38 84 45 100 95
207 196 567 250 890 47 281 57 646 30 1061 -3 49 -8 107 -10 129 -3 22 -7 65
-10 95 -13 149 -16 177 -20 200 -2 14 -7 52 -10 85 -3 33 -8 71 -10 85 -2 14
-7 43 -9 65 -3 22 -10 78 -16 125 -6 47 -13 102 -15 123 -3 20 -7 54 -10 75
-4 36 -8 73 -20 177 -3 28 -8 70 -10 95 -10 84 -21 198 -31 330 -15 183 -9
612 10 730 3 14 7 50 11 81 3 31 7 66 10 77 2 11 6 49 10 83 4 35 8 66 10 69
3 5 31 151 39 205 2 11 8 45 15 75 6 30 13 64 15 75 12 56 40 183 89 400 30
132 58 258 63 280 4 22 8 42 9 45 1 3 5 25 10 50 5 25 9 47 10 50 10 41 16 70
20 95 3 17 7 40 9 53 16 80 52 312 61 395 3 26 7 66 10 90 9 88 16 272 20 567
4 290 8 403 21 515 9 84 35 248 44 280 110 380 215 550 492 796 365 323 431
440 423 754 -2 77 -6 161 -10 187 -20 142 -7 325 28 408 38 88 154 176 257
194 19 3 44 8 56 10 12 2 57 7 100 11 104 9 203 29 256 53 96 42 311 198 493
356 124 108 138 120 194 171 161 145 522 500 643 632 230 252 426 637 472 928
2 17 7 49 11 71 9 56 9 209 1 261 -24 150 -87 283 -176 373 -118 118 -321 207
-535 236 -27 3 -59 9 -70 11 -24 7 -500 14 -506 9z"/>
<path d="M18435 29079 c-192 -23 -287 -50 -440 -125 -296 -145 -497 -400 -760
-964 -99 -214 -216 -452 -257 -525 -83 -147 -90 -160 -126 -210 -99 -136 -225
-252 -417 -381 -55 -36 -112 -75 -127 -85 -15 -11 -29 -19 -31 -19 -2 0 -42
-22 -88 -48 -46 -27 -136 -76 -199 -109 -168 -89 -248 -132 -309 -165 -423
-235 -618 -431 -693 -695 -20 -70 -22 -96 -18 -258 10 -525 6 -570 -61 -700
-62 -119 -134 -191 -374 -373 -400 -304 -438 -378 -460 -897 -5 -109 -9 -176
-20 -275 -2 -19 -6 -64 -10 -100 -4 -36 -8 -76 -10 -90 -19 -135 -27 -189 -31
-210 -2 -14 -6 -45 -10 -70 -3 -25 -7 -52 -9 -60 -3 -8 -7 -33 -10 -55 -4 -22
-12 -71 -20 -110 -7 -38 -17 -88 -21 -110 -4 -22 -8 -44 -10 -50 -3 -13 -10
-51 -19 -100 -12 -63 -13 -67 -24 -115 -5 -25 -12 -56 -15 -70 -2 -14 -14 -70
-26 -125 -11 -55 -23 -113 -26 -129 -3 -16 -6 -32 -8 -35 -2 -3 -7 -22 -10
-41 -3 -19 -8 -46 -11 -60 -7 -28 -34 -161 -41 -200 -3 -14 -18 -95 -35 -180
-33 -170 -36 -189 -44 -240 -5 -31 -16 -96 -30 -177 -3 -16 -10 -66 -16 -113
-6 -47 -12 -96 -15 -110 -2 -14 -6 -52 -9 -85 -4 -33 -8 -73 -10 -90 -26 -189
-26 -867 0 -948 2 -6 6 -37 9 -67 10 -96 35 -236 102 -570 36 -179 67 -334 68
-345 2 -11 13 -81 24 -155 29 -184 30 -195 39 -280 16 -149 7 -575 -12 -633
-2 -7 -7 -29 -10 -51 -11 -78 -58 -246 -124 -446 -100 -299 -120 -367 -141
-479 -63 -332 -1 -630 168 -808 155 -163 377 -264 642 -291 118 -12 550 -4
685 13 189 24 657 24 727 0 7 -2 29 -6 48 -9 80 -12 191 -50 290 -98 58 -28
112 -56 120 -63 12 -9 99 -49 235 -106 56 -24 190 -55 315 -74 87 -13 350 -14
405 -2 11 2 42 8 68 11 100 15 262 58 347 93 8 3 21 7 28 9 25 5 248 119 323
164 480 295 874 815 1019 1343 27 99 32 125 55 272 18 119 13 406 -9 515 -1 8
-6 33 -11 55 -14 75 -61 240 -163 575 -46 151 -88 318 -97 380 -5 35 -15 100
-21 130 -7 38 -6 259 1 315 10 77 43 212 71 290 21 58 142 353 189 460 26 60
65 188 80 264 32 155 25 270 -26 476 -37 143 -44 189 -43 275 1 218 81 412
283 685 40 54 248 313 261 325 13 13 130 171 163 220 86 132 154 332 243 715
31 132 28 117 43 190 7 33 19 83 27 112 9 29 17 62 19 75 21 114 114 386 171
499 110 221 285 378 459 415 17 4 68 12 115 19 311 47 571 228 705 493 19 37
62 146 96 242 99 282 220 634 224 650 2 8 18 60 35 115 17 55 33 107 35 115 2
8 14 58 28 110 24 92 59 257 73 350 3 25 8 52 9 60 25 139 38 466 24 580 -4
30 -10 82 -14 115 -3 33 -7 67 -10 75 -2 8 -6 26 -9 40 -28 159 -102 370 -183
525 -43 80 -45 84 -114 188 -106 159 -269 327 -424 440 -68 49 -231 146 -287
171 -21 9 -54 23 -73 31 -85 38 -240 92 -570 198 -281 91 -352 120 -680 282
-159 78 -343 163 -408 189 -117 46 -297 97 -392 111 -68 10 -326 13 -400 4z"/>
<path d="M9288 27535 c-2 -2 -37 -6 -78 -10 -41 -4 -82 -9 -91 -10 -9 -2 -40
-6 -69 -10 -29 -4 -62 -9 -74 -11 -12 -2 -34 -6 -51 -9 -439 -84 -840 -227
-1355 -484 -139 -70 -202 -103 -335 -176 -59 -32 -327 -184 -350 -198 -49 -30
-99 -60 -128 -76 -70 -40 -255 -149 -294 -174 -24 -15 -47 -27 -52 -27 -5 0
-11 -3 -13 -7 -1 -5 -19 -17 -38 -27 -58 -32 -298 -194 -420 -284 -234 -173
-532 -421 -795 -662 -264 -242 -698 -678 -930 -935 -98 -109 -183 -202 -210
-230 -11 -12 -56 -62 -100 -110 -44 -49 -87 -96 -95 -105 -47 -51 -145 -157
-215 -235 -44 -48 -89 -98 -100 -109 -11 -12 -63 -69 -115 -126 -111 -122
-163 -180 -205 -224 -16 -18 -66 -72 -109 -120 -44 -48 -91 -99 -105 -115 -24
-24 -153 -166 -271 -294 -25 -27 -58 -64 -75 -81 -16 -18 -69 -75 -116 -127
-48 -52 -104 -112 -124 -134 -59 -63 -112 -120 -240 -260 -66 -71 -141 -152
-166 -180 -26 -27 -61 -66 -79 -85 -18 -19 -49 -53 -69 -75 -82 -89 -299 -373
-356 -464 -5 -9 -13 -18 -16 -21 -11 -10 -158 -239 -244 -380 -86 -143 -301
-518 -385 -675 -24 -44 -118 -215 -209 -380 -213 -386 -252 -465 -307 -613
-23 -62 -79 -255 -90 -312 -29 -150 -51 -300 -59 -414 -5 -61 -5 -411 -1 -486
5 -82 16 -200 21 -220 2 -8 7 -40 10 -70 3 -30 8 -62 10 -70 2 -8 7 -31 10
-50 13 -79 59 -273 92 -385 84 -291 233 -616 384 -843 288 -430 658 -715 1065
-821 269 -69 505 -71 801 -5 61 14 192 51 290 84 308 103 551 167 778 206 17
3 41 7 55 9 14 2 47 7 74 10 28 4 52 8 55 10 3 1 40 6 81 10 41 4 83 9 92 10
111 22 673 22 809 0 13 -2 51 -6 84 -10 123 -13 142 -16 230 -31 112 -19 228
-42 280 -56 22 -5 49 -11 60 -13 20 -3 112 -27 265 -70 47 -14 100 -27 119
-30 19 -3 37 -7 40 -9 3 -2 30 -7 60 -11 30 -4 63 -9 75 -11 87 -17 297 -22
426 -11 391 35 671 210 783 490 74 184 82 435 23 732 -23 114 -20 102 -69 305
-25 102 -50 210 -56 240 -6 30 -14 66 -16 80 -7 33 -33 213 -40 270 -25 221
-25 659 0 823 2 12 6 45 10 72 13 102 17 122 36 225 25 139 24 132 49 230 41
162 120 406 165 505 7 17 34 82 60 145 26 63 52 129 60 145 66 150 160 435
179 540 40 219 38 398 -5 562 -44 167 -101 304 -277 663 -201 411 -247 553
-246 765 1 99 9 157 33 226 38 110 71 158 202 294 58 61 120 126 136 145 106
126 172 281 173 410 2 118 -23 196 -140 440 -129 270 -154 360 -131 472 17 81
60 138 174 231 56 45 114 95 129 112 40 43 102 168 128 255 21 71 29 105 66
280 9 41 17 82 19 90 2 8 15 53 30 100 75 237 221 463 464 719 24 25 145 152
270 281 282 292 253 261 341 361 41 46 77 86 80 89 3 3 25 30 50 60 25 30 47
57 50 60 3 3 36 45 73 95 111 149 158 254 131 293 -11 16 -57 35 -66 27z"/>
<path d="M22848 27145 c-180 -38 -305 -173 -383 -412 -14 -42 -27 -88 -30
-102 -3 -14 -7 -35 -9 -46 -18 -92 -36 -201 -41 -255 -3 -36 -8 -83 -10 -105
-9 -75 -16 -193 -30 -491 -3 -67 -7 -150 -10 -185 -2 -35 -6 -108 -10 -161 -3
-54 -7 -105 -9 -115 -2 -10 -7 -45 -10 -78 -44 -386 -182 -740 -399 -1030 -98
-131 -153 -192 -406 -454 -425 -440 -586 -681 -780 -1171 -23 -58 -46 -114
-51 -125 -5 -11 -32 -85 -60 -165 -46 -126 -76 -213 -195 -550 -34 -98 -115
-305 -151 -386 -43 -99 -124 -333 -140 -409 -37 -165 -46 -262 -43 -445 7
-534 3 -655 -25 -748 -3 -9 -8 -33 -11 -52 -3 -19 -10 -39 -16 -44 -5 -6 -9
-16 -9 -24 0 -18 -87 -192 -126 -253 -34 -53 -37 -58 -108 -184 -92 -164 -126
-272 -127 -405 -1 -114 25 -231 76 -345 8 -16 41 -91 75 -165 34 -74 63 -142
65 -150 2 -8 15 -43 29 -78 49 -124 99 -312 126 -482 6 -41 13 -86 16 -100 28
-172 22 -604 -11 -780 -4 -19 -13 -69 -20 -110 -22 -119 -25 -134 -31 -153
-18 -59 -41 -261 -39 -349 5 -305 206 -526 650 -716 188 -80 528 -178 755
-217 19 -3 53 -10 75 -15 22 -5 58 -11 80 -14 22 -4 78 -13 125 -21 47 -7 105
-16 130 -19 25 -3 56 -8 70 -11 26 -5 55 -8 170 -20 36 -4 73 -9 82 -10 9 -2
48 -7 85 -10 37 -4 78 -8 91 -10 13 -2 51 -7 85 -10 34 -3 80 -8 102 -10 22
-3 92 -5 155 -5 204 -1 352 37 606 155 444 207 553 237 814 228 334 -12 449
-8 540 15 200 52 363 162 497 337 50 65 129 217 167 323 29 82 81 282 90 353
4 25 9 57 11 70 20 124 29 269 29 474 0 161 -8 337 -19 420 -2 17 -6 57 -10
90 -3 33 -13 105 -21 160 -8 55 -17 109 -18 120 -13 85 -65 332 -86 405 -55
196 -105 349 -156 470 -49 120 -66 191 -70 300 -3 92 0 117 22 189 24 79 55
145 96 204 59 84 161 345 187 477 20 107 22 127 26 275 6 248 -29 428 -136
704 -94 239 -121 353 -121 506 -1 138 16 219 69 335 55 120 118 205 278 370
174 181 174 181 235 280 55 89 121 244 119 280 0 3 4 17 9 31 37 96 37 425 0
564 -5 22 -12 51 -15 65 -10 59 -77 237 -122 322 -54 104 -89 158 -172 268
-60 79 -61 81 -158 188 -113 127 -177 225 -220 337 -13 33 -27 69 -32 80 -38
90 -60 373 -39 515 17 120 22 147 37 205 9 33 16 65 17 70 1 6 5 19 9 30 3 11
8 31 11 45 2 14 11 54 20 90 8 36 18 85 21 110 3 25 8 63 11 85 6 52 6 293 -1
325 -3 14 -7 42 -10 64 -9 71 -65 220 -113 300 -55 93 -196 241 -292 307 -62
43 -204 124 -280 161 -108 52 -249 107 -561 218 -136 48 -313 116 -395 150
-168 70 -271 106 -328 114 -21 4 -42 9 -47 12 -19 11 -196 11 -251 -1z"/>
<path d="M26186 25670 c-67 -26 -111 -71 -152 -155 -46 -94 -66 -202 -68 -355
-1 -115 9 -262 19 -292 2 -7 6 -31 9 -53 6 -47 10 -67 24 -120 6 -22 13 -52
16 -66 8 -46 84 -267 116 -335 16 -36 30 -68 30 -71 0 -17 122 -207 177 -276
177 -219 294 -451 359 -712 44 -176 62 -341 58 -525 -9 -467 -170 -828 -457
-1024 -216 -148 -327 -275 -383 -438 -20 -57 -26 -241 -11 -308 21 -94 66
-211 120 -310 146 -270 191 -419 190 -625 0 -133 -22 -227 -81 -355 -17 -39
-92 -162 -103 -170 -26 -20 -119 -180 -164 -284 -42 -95 -63 -218 -63 -359 -1
-94 4 -145 23 -257 12 -72 52 -207 145 -502 10 -32 35 -126 54 -210 34 -149
40 -177 52 -247 3 -18 7 -42 9 -53 3 -11 7 -46 11 -77 3 -31 8 -58 9 -61 8
-14 19 -243 19 -385 1 -141 -9 -320 -18 -372 -2 -10 -7 -38 -10 -63 -13 -96
-21 -135 -72 -345 -18 -77 -36 -169 -40 -205 -3 -36 -6 -67 -7 -70 -1 -3 2
-36 6 -75 15 -132 84 -235 222 -330 150 -102 292 -148 460 -147 137 0 222 22
371 92 97 47 212 95 254 106 68 18 196 45 245 51 115 14 409 7 528 -12 126
-21 337 -56 357 -60 13 -3 40 -7 60 -10 20 -3 46 -7 59 -10 12 -2 66 -9 119
-15 300 -32 564 -27 795 15 302 56 568 173 792 347 48 37 248 239 280 283 17
22 33 42 36 45 34 27 199 319 248 440 12 30 26 64 32 75 11 24 70 194 74 215
2 8 14 56 28 105 30 108 56 228 73 335 3 19 7 46 10 60 2 14 6 45 9 70 3 25 8
54 10 65 2 11 7 56 10 100 4 44 9 87 10 96 2 9 6 56 10 105 3 49 8 107 10 129
26 249 26 1000 0 1230 -2 17 -6 59 -10 95 -3 36 -8 88 -11 115 -5 51 -31 239
-39 285 -3 14 -12 63 -20 110 -15 87 -19 107 -29 150 -132 598 -314 1062 -599
1529 -76 126 -204 318 -224 339 -7 7 -13 17 -13 21 0 4 -8 16 -18 27 -10 10
-27 34 -37 52 -11 17 -23 32 -27 32 -4 0 -8 4 -8 9 0 5 -83 121 -184 258 -233
313 -287 391 -396 568 -467 763 -770 1160 -1048 1372 -135 103 -216 145 -467
241 -327 124 -448 208 -725 496 -252 263 -403 409 -507 489 -56 42 -105 77
-109 77 -4 0 -15 6 -23 14 -25 22 -150 82 -206 98 -75 22 -161 21 -219 -2z"/>
<path d="M8809 14985 c-499 -79 -909 -365 -1232 -860 -140 -216 -267 -505
-333 -760 -38 -143 -69 -320 -79 -445 -3 -36 -7 -85 -10 -110 -3 -25 -7 -85
-10 -133 -4 -48 -8 -101 -10 -117 -22 -174 -21 -705 1 -884 2 -17 6 -53 9 -81
24 -195 95 -478 154 -610 57 -127 110 -227 193 -364 218 -362 272 -493 302
-741 13 -101 13 -380 2 -485 -3 -27 -8 -72 -12 -100 -4 -44 -21 -158 -39 -280
-3 -22 -13 -76 -20 -120 -16 -89 -18 -101 -40 -230 -22 -127 -24 -138 -29
-160 -2 -11 -7 -40 -10 -65 -3 -25 -8 -54 -10 -65 -2 -12 -7 -48 -11 -80 -4
-33 -9 -71 -11 -85 -29 -178 -25 -551 8 -675 5 -22 12 -50 14 -63 8 -43 53
-152 90 -219 21 -37 93 -137 159 -222 188 -240 229 -313 264 -463 16 -69 18
-108 14 -262 -8 -302 -8 -478 0 -531 22 -134 106 -327 221 -505 53 -82 187
-262 253 -340 112 -132 294 -355 360 -440 184 -240 244 -353 481 -905 225
-523 381 -758 656 -990 182 -152 522 -337 849 -461 51 -19 101 -39 112 -44 18
-8 109 -37 261 -84 152 -46 467 -117 659 -147 39 -6 77 -12 85 -14 8 -1 42 -5
75 -10 33 -4 68 -9 78 -11 10 -2 53 -6 95 -9 42 -4 79 -8 82 -10 3 -1 50 -6
105 -10 55 -4 116 -8 135 -10 278 -26 1068 -26 1555 1 44 2 123 6 175 9 110 6
223 13 330 20 41 2 116 7 165 10 122 8 203 13 310 20 50 4 126 8 170 10 262
12 279 14 302 42 75 91 17 386 -182 918 -57 152 -188 466 -255 610 -23 50 -51
110 -62 135 -11 25 -67 140 -125 255 -217 433 -372 688 -477 783 -35 32 -224
161 -316 216 -81 48 -85 51 -90 57 -3 3 -24 18 -46 32 -101 63 -227 179 -284
262 -61 88 -88 159 -116 295 -13 65 -12 377 1 480 9 65 10 346 2 410 -25 201
-87 358 -197 495 -88 110 -186 191 -421 350 -241 162 -358 269 -458 415 -132
192 -182 402 -176 725 4 171 8 236 20 315 3 19 8 53 11 75 10 85 15 122 24
170 11 60 17 90 30 170 9 57 13 76 25 135 2 14 7 39 9 55 3 17 12 71 20 120
14 83 19 116 31 215 3 19 7 67 10 105 3 39 7 97 10 130 4 56 11 179 20 370 5
105 5 738 0 884 -7 204 -19 447 -31 611 -3 47 -7 110 -9 140 -3 56 -11 155
-20 265 -3 33 -8 85 -10 115 -6 74 -15 166 -20 215 -2 22 -7 72 -10 110 -3 39
-8 88 -10 110 -3 22 -7 65 -9 95 -3 30 -7 71 -10 90 -3 19 -8 69 -11 110 -4
41 -8 82 -10 90 -1 9 -6 47 -9 85 -7 76 -12 120 -21 205 -12 113 -15 141 -20
186 -3 26 -8 68 -10 93 -5 52 -31 233 -39 271 -3 14 -11 50 -17 80 -29 145
-118 363 -181 444 -108 139 -244 213 -438 239 -120 16 -354 12 -505 -8 -16 -2
-57 -7 -90 -9 -72 -7 -159 -15 -200 -21 -16 -2 -68 -7 -115 -10 -47 -4 -101
-9 -120 -11 -19 -2 -114 -7 -211 -10 -322 -12 -417 15 -854 246 -179 94 -337
154 -460 174 -83 14 -350 14 -436 1z"/>
<path d="M1867 14884 c-1 -1 -47 -4 -102 -7 -55 -4 -111 -9 -125 -12 -14 -3
-45 -7 -70 -10 -52 -5 -192 -33 -235 -45 -16 -5 -77 -24 -135 -41 -248 -74
-469 -184 -656 -326 -78 -59 -254 -228 -254 -244 0 -4 -6 -14 -14 -22 -22 -21
-80 -115 -115 -185 -64 -128 -116 -327 -146 -559 -12 -101 -13 -573 -1 -658 3
-16 7 -55 11 -85 3 -30 8 -73 11 -95 4 -22 8 -51 9 -65 3 -22 24 -150 40 -245
46 -263 148 -670 241 -960 73 -228 200 -573 269 -730 100 -228 177 -396 261
-565 92 -186 126 -251 249 -475 56 -103 273 -461 364 -603 76 -115 301 -444
335 -487 9 -11 66 -87 127 -170 61 -82 114 -152 118 -155 3 -3 28 -34 56 -70
67 -87 116 -147 239 -295 51 -61 298 -348 306 -355 3 -3 50 -54 105 -115 278
-307 755 -783 1126 -1125 246 -227 627 -559 884 -771 11 -10 41 -34 66 -55 76
-64 85 -71 319 -259 124 -99 277 -221 340 -270 63 -49 120 -93 125 -98 120
-97 462 -338 630 -442 262 -164 569 -325 835 -439 194 -84 278 -129 414 -225
67 -46 123 -87 126 -91 3 -3 41 -33 85 -66 44 -32 82 -62 85 -65 3 -3 46 -36
96 -72 104 -76 248 -163 314 -191 25 -10 52 -21 60 -26 70 -35 273 -56 361
-37 l36 7 -8 48 c-13 83 -26 213 -45 437 -7 86 -42 389 -49 430 -47 249 -79
360 -145 500 -83 176 -170 269 -444 476 -186 139 -195 147 -279 234 -98 101
-168 225 -183 323 -3 21 -7 44 -10 52 -3 8 -5 87 -4 175 4 308 4 351 -3 419
-8 78 -38 202 -63 262 -65 158 -133 259 -328 494 -170 203 -150 178 -203 260
-147 228 -186 512 -113 815 36 149 154 502 180 540 3 6 14 33 24 60 10 28 22
59 27 70 35 77 140 391 153 460 2 11 9 38 14 60 6 22 13 60 16 85 4 25 9 68
13 95 12 91 4 308 -11 334 -2 3 -7 22 -10 41 -8 48 -19 84 -51 165 -57 143
-135 253 -293 420 -97 102 -167 187 -204 250 -46 79 -133 310 -152 405 -3 14
-10 43 -16 65 -5 22 -12 56 -16 75 -3 19 -7 42 -9 50 -3 8 -7 33 -10 55 -3 22
-7 49 -10 60 -4 18 -8 54 -20 145 -27 225 -28 703 0 955 18 166 66 411 115
590 17 61 33 117 35 125 33 137 205 592 370 979 95 225 98 232 89 278 -15 82
-168 158 -359 178 -33 4 -62 8 -65 10 -35 22 -745 22 -930 0 -19 -2 -73 -7
-120 -10 -47 -3 -103 -8 -125 -10 -22 -3 -62 -7 -90 -10 -27 -3 -68 -10 -90
-16 -22 -6 -42 -11 -45 -11 -3 0 -12 -4 -21 -9 -39 -20 -349 -91 -499 -113
-173 -26 -577 -27 -717 -2 -10 2 -40 7 -68 10 -207 29 -434 91 -714 198 -315
120 -674 231 -816 254 -22 3 -42 7 -45 9 -3 2 -24 6 -46 9 -22 4 -50 8 -62 11
-49 9 -327 25 -335 19z"/>
<path d="M13880 14879 c-196 -17 -374 -101 -523 -247 -96 -93 -146 -163 -199
-279 -23 -51 -76 -224 -77 -248 0 -5 -8 -71 -17 -135 -7 -50 -6 -297 1 -366
20 -194 38 -320 70 -489 24 -124 47 -234 65 -315 11 -52 23 -108 26 -125 3
-16 9 -46 14 -65 5 -19 11 -48 14 -65 3 -16 14 -84 25 -150 26 -160 31 -191
37 -251 2 -28 6 -60 8 -71 2 -10 7 -59 11 -109 4 -49 9 -100 10 -114 26 -220
26 -1091 0 -1375 -2 -27 -7 -88 -10 -135 -3 -47 -8 -110 -11 -140 -2 -30 -6
-75 -8 -100 -7 -79 -17 -184 -21 -220 -3 -19 -7 -65 -10 -102 -3 -37 -7 -75
-9 -85 -2 -10 -7 -52 -11 -93 -4 -41 -8 -82 -10 -90 -2 -8 -6 -49 -10 -90 -4
-41 -8 -77 -10 -80 -2 -3 -6 -39 -10 -80 -4 -41 -8 -77 -10 -80 -2 -3 -6 -45
-10 -93 -3 -48 -8 -98 -11 -110 -23 -123 -23 -562 1 -686 2 -10 6 -36 9 -57 4
-22 11 -57 17 -79 6 -22 13 -50 15 -62 12 -67 72 -204 144 -331 59 -105 246
-311 455 -502 178 -163 319 -305 386 -390 45 -56 119 -166 119 -176 0 -4 6
-15 14 -23 19 -21 80 -169 110 -268 28 -89 52 -199 96 -428 38 -197 71 -335
105 -440 27 -85 116 -271 144 -302 9 -10 29 -36 46 -58 48 -65 197 -208 330
-316 16 -13 75 -69 130 -124 138 -137 246 -301 348 -525 18 -41 35 -79 36 -85
2 -5 7 -19 11 -30 16 -42 82 -231 85 -245 14 -54 161 -526 193 -620 121 -352
254 -583 441 -770 119 -118 122 -121 235 -197 187 -127 505 -251 741 -289 21
-3 47 -8 59 -10 184 -38 664 -48 849 -19 12 2 49 6 82 10 33 3 67 8 75 10 8 3
37 7 63 9 26 3 51 7 55 10 4 2 32 7 62 11 30 4 58 9 61 11 3 2 19 5 35 8 86
15 288 72 429 121 88 31 167 57 175 59 8 2 44 15 80 29 36 14 151 55 255 92
195 69 390 138 505 180 114 41 370 132 530 189 85 30 169 60 185 67 17 7 35
13 40 14 22 5 255 111 324 148 241 128 403 274 487 435 94 182 92 405 -4 544
-44 63 -83 102 -215 218 -144 124 -215 209 -268 315 -54 108 -67 192 -61 370
11 306 8 456 -12 520 -48 160 -120 261 -277 388 -25 20 -51 37 -57 37 -6 0
-12 3 -14 8 -7 16 -182 110 -308 165 -88 38 -232 95 -248 98 -4 0 -18 7 -32
14 -14 7 -52 23 -85 36 -234 87 -312 165 -415 414 -26 64 -89 259 -105 325 -2
8 -16 64 -30 124 -15 60 -28 116 -30 125 -2 9 -17 79 -34 156 -17 77 -33 151
-35 165 -2 14 -30 151 -61 305 -31 154 -59 291 -61 305 -3 14 -14 61 -26 105
-11 44 -22 89 -24 101 -2 12 -11 41 -19 65 -19 52 -79 280 -94 359 -6 30 -14
66 -16 80 -3 14 -8 41 -11 60 -2 19 -9 58 -14 85 -5 28 -12 73 -15 100 -4 28
-8 61 -10 75 -2 14 -6 57 -10 95 -4 39 -8 81 -10 95 -11 72 -19 336 -19 575 1
277 8 480 28 750 18 233 26 331 32 390 13 123 11 474 -2 575 -18 138 -62 303
-109 415 -7 17 -36 91 -65 165 -28 74 -56 144 -60 155 -8 17 -22 60 -25 75 -1
3 -9 29 -18 58 -20 65 -41 180 -53 292 -2 25 -7 55 -9 67 -3 12 -7 41 -10 65
-3 24 -8 55 -10 71 -3 15 -7 42 -10 60 -3 17 -13 68 -21 112 -8 44 -17 91 -20
105 -14 77 -57 238 -87 330 -89 272 -184 452 -333 630 -101 122 -214 215 -333
274 -67 34 -236 90 -301 100 -19 3 -46 8 -60 10 -63 12 -183 26 -340 42 -30 3
-68 7 -85 9 -16 2 -66 7 -110 10 -44 4 -87 9 -96 10 -100 19 -712 27 -863 12
-99 -10 -143 -19 -341 -72 -312 -82 -401 -92 -543 -60 -131 30 -305 95 -505
189 -54 25 -99 46 -101 46 -3 0 -37 15 -78 34 -231 108 -431 171 -573 182 -33
3 -64 6 -70 7 -5 2 -44 0 -85 -4z"/>
<path d="M26937 14754 c-1 -1 -45 -4 -97 -8 -52 -3 -107 -8 -123 -11 -15 -2
-55 -10 -90 -15 -95 -17 -241 -57 -349 -96 -227 -84 -321 -178 -314 -317 3
-58 37 -157 58 -165 4 -2 8 -8 8 -13 0 -6 18 -34 40 -64 22 -30 40 -57 40 -60
0 -3 8 -15 19 -26 38 -41 99 -177 117 -260 45 -211 3 -485 -131 -850 -84 -229
-113 -383 -110 -578 5 -231 16 -275 240 -921 30 -86 71 -218 91 -295 32 -121
37 -156 38 -255 1 -162 -7 -213 -88 -537 -24 -98 -47 -194 -50 -213 -3 -19 -9
-46 -12 -60 -3 -14 -8 -78 -11 -143 -12 -244 47 -403 280 -754 185 -279 235
-374 297 -563 68 -202 85 -316 85 -555 0 -362 -60 -556 -345 -1120 -247 -489
-312 -660 -346 -905 -3 -25 -8 -53 -10 -63 -9 -48 -17 -206 -18 -332 -2 -519
120 -909 327 -1052 157 -107 400 -66 546 93 73 80 133 179 252 414 106 210
185 335 255 400 133 125 314 255 759 545 402 262 625 469 901 838 46 62 87
117 92 122 10 12 192 284 244 365 79 123 368 606 368 616 0 2 11 21 23 42 13
20 102 174 196 342 95 168 185 325 201 350 15 25 67 112 116 193 49 82 109
181 133 220 209 344 312 560 399 842 30 96 86 310 96 367 2 15 7 31 10 36 3 5
8 31 12 58 3 27 8 52 10 55 2 4 6 24 10 44 3 21 8 47 10 59 7 31 32 176 38
216 32 226 39 273 51 395 3 28 7 70 10 95 3 25 7 72 9 105 3 33 9 103 13 155
16 199 7 1076 -12 1178 -1 10 -6 46 -9 82 -9 86 -12 107 -20 155 -3 22 -8 56
-11 75 -6 41 -19 120 -34 205 -21 115 -101 410 -130 480 -5 11 -22 54 -37 95
-60 156 -187 381 -269 475 -93 106 -157 166 -244 224 -88 60 -245 131 -347
156 -91 23 -181 42 -243 51 -25 4 -53 8 -62 9 -110 20 -694 27 -954 12 -304
-18 -364 -20 -580 -21 -206 0 -341 6 -445 18 -19 3 -60 7 -90 11 -80 8 -140
15 -185 20 -22 3 -62 7 -90 10 -49 5 -67 7 -225 20 -72 6 -308 13 -313 9z"/>
<path d="M24368 14685 c-2 -1 -30 -5 -63 -9 -33 -3 -71 -8 -85 -11 -14 -3 -50
-9 -80 -15 -73 -13 -81 -15 -180 -39 -131 -31 -491 -136 -725 -211 -139 -44
-267 -73 -465 -105 -14 -2 -38 -6 -55 -9 -16 -3 -52 -8 -80 -12 -27 -3 -57 -8
-65 -9 -9 -2 -43 -6 -75 -10 -33 -4 -71 -8 -85 -10 -188 -26 -590 -26 -760 1
-186 29 -374 77 -485 124 -174 75 -355 136 -490 165 -67 15 -270 15 -332 0
-225 -53 -377 -204 -452 -449 -21 -69 -23 -78 -40 -176 -32 -181 -30 -512 4
-775 2 -16 7 -57 10 -90 3 -33 8 -71 10 -85 3 -14 7 -41 10 -60 8 -55 25 -160
35 -220 6 -30 12 -68 15 -85 5 -31 21 -121 30 -165 3 -14 9 -50 15 -80 6 -30
12 -66 15 -80 3 -14 12 -61 21 -105 8 -44 19 -100 24 -125 5 -25 12 -56 14
-70 2 -14 9 -46 15 -73 6 -26 13 -62 16 -80 2 -17 7 -43 10 -57 9 -42 54 -302
60 -345 3 -22 7 -50 9 -62 19 -94 25 -332 13 -478 -6 -77 -16 -209 -22 -325
-24 -419 -24 -1278 0 -1530 2 -19 6 -82 10 -140 4 -57 8 -117 10 -132 2 -16 7
-63 10 -106 4 -42 9 -85 11 -95 2 -10 6 -46 9 -80 3 -34 8 -69 10 -77 2 -8 7
-39 10 -69 4 -30 9 -63 11 -75 2 -11 6 -38 9 -61 26 -180 98 -485 160 -673
140 -422 251 -582 620 -891 159 -134 306 -274 372 -356 163 -201 289 -481 347
-769 29 -141 34 -198 41 -401 8 -265 30 -373 95 -475 33 -51 41 -59 166 -155
99 -76 130 -109 191 -200 70 -103 93 -156 180 -410 84 -245 132 -332 232 -418
68 -59 151 -101 256 -128 241 -62 479 -1 845 218 185 111 284 171 295 180 18
15 153 93 237 136 103 54 189 88 293 117 248 69 416 205 559 452 102 178 189
520 221 868 21 218 29 361 40 710 3 85 7 191 10 235 2 44 7 125 10 180 6 103
14 191 21 235 2 14 6 55 9 90 19 221 54 301 199 458 146 157 246 398 273 657
13 125 7 362 -11 461 -2 11 -7 39 -11 64 -18 118 -76 317 -136 468 -38 96 -65
148 -166 326 -136 237 -172 341 -171 499 0 125 24 234 105 477 145 437 142
588 -17 845 -98 158 -136 241 -170 372 -40 152 -62 315 -76 548 -4 61 -8 445
-9 855 -1 410 -5 759 -8 775 -3 17 -8 68 -12 115 -4 47 -9 87 -10 90 -2 3 -6
32 -9 65 -4 33 -9 67 -11 75 -2 8 -7 31 -10 50 -29 176 -120 403 -206 517
-134 178 -245 233 -481 238 -75 2 -138 2 -140 0z"/>
</g>
</svg>
